<?xml version="1.0" encoding="UTF-8" standalone="no"?><svg xmlns="http://www.w3.org/2000/svg" xmlns:xlink="http://www.w3.org/1999/xlink" contentScriptType="application/ecmascript" contentStyleType="text/css" height="290px" preserveAspectRatio="none" style="width:488px;height:290px;background:#FFFFFF;" version="1.1" viewBox="0 0 488 290" width="488px" zoomAndPan="magnify"><defs/><g><rect fill="none" height="27.6094" style="stroke:none;stroke-width:1.0;" width="172" x="137.5" y="5"/><text fill="#000000" font-family="sans-serif" font-size="14" font-weight="bold" lengthAdjust="spacing" textLength="162" x="142.5" y="24.5332">New Idea Development</text><rect fill="#E0E8E8" height="170.8516" style="stroke:none;stroke-width:1.0;" width="64" x="32" y="79.6094"/><rect fill="#E0E8E8" height="170.8516" style="stroke:none;stroke-width:1.0;" width="64" x="256" y="79.6094"/><text fill="#000000" font-family="Serif" font-size="10" lengthAdjust="spacing" textLength="9" x="11.5" y="65.0879">Fr</text><text fill="#909898" font-family="Serif" font-size="10" lengthAdjust="spacing" textLength="10" x="43" y="65.0879">Sa</text><text fill="#909898" font-family="Serif" font-size="10" lengthAdjust="spacing" textLength="11" x="74.5" y="65.0879">Su</text><text fill="#000000" font-family="Serif" font-size="10" lengthAdjust="spacing" textLength="14" x="105" y="65.0879">Mo</text><text fill="#000000" font-family="Serif" font-size="10" lengthAdjust="spacing" textLength="12" x="138" y="65.0879">Tu</text><text fill="#000000" font-family="Serif" font-size="10" lengthAdjust="spacing" textLength="14" x="169" y="65.0879">We</text><text fill="#000000" font-family="Serif" font-size="10" lengthAdjust="spacing" textLength="12" x="202" y="65.0879">Th</text><text fill="#000000" font-family="Serif" font-size="10" lengthAdjust="spacing" textLength="9" x="235.5" y="65.0879">Fr</text><text fill="#909898" font-family="Serif" font-size="10" lengthAdjust="spacing" textLength="10" x="267" y="65.0879">Sa</text><text fill="#909898" font-family="Serif" font-size="10" lengthAdjust="spacing" textLength="11" x="298.5" y="65.0879">Su</text><text fill="#000000" font-family="Serif" font-size="10" lengthAdjust="spacing" textLength="14" x="329" y="65.0879">Mo</text><text fill="#000000" font-family="Serif" font-size="10" lengthAdjust="spacing" textLength="12" x="362" y="65.0879">Tu</text><text fill="#000000" font-family="Serif" font-size="10" lengthAdjust="spacing" textLength="14" x="393" y="65.0879">We</text><text fill="#000000" font-family="Serif" font-size="10" lengthAdjust="spacing" textLength="12" x="426" y="65.0879">Th</text><text fill="#000000" font-family="Serif" font-size="10" lengthAdjust="spacing" textLength="5" x="13.5" y="77.0879">1</text><text fill="#909898" font-family="Serif" font-size="10" lengthAdjust="spacing" textLength="5" x="45.5" y="77.0879">2</text><text fill="#909898" font-family="Serif" font-size="10" lengthAdjust="spacing" textLength="5" x="77.5" y="77.0879">3</text><text fill="#000000" font-family="Serif" font-size="10" lengthAdjust="spacing" textLength="5" x="109.5" y="77.0879">4</text><text fill="#000000" font-family="Serif" font-size="10" lengthAdjust="spacing" textLength="5" x="141.5" y="77.0879">5</text><text fill="#000000" font-family="Serif" font-size="10" lengthAdjust="spacing" textLength="5" x="173.5" y="77.0879">6</text><text fill="#000000" font-family="Serif" font-size="10" lengthAdjust="spacing" textLength="5" x="205.5" y="77.0879">7</text><text fill="#000000" font-family="Serif" font-size="10" lengthAdjust="spacing" textLength="5" x="237.5" y="77.0879">8</text><text fill="#909898" font-family="Serif" font-size="10" lengthAdjust="spacing" textLength="5" x="269.5" y="77.0879">9</text><text fill="#909898" font-family="Serif" font-size="10" lengthAdjust="spacing" textLength="10" x="299" y="77.0879">10</text><text fill="#000000" font-family="Serif" font-size="10" lengthAdjust="spacing" textLength="10" x="331" y="77.0879">11</text><text fill="#000000" font-family="Serif" font-size="10" lengthAdjust="spacing" textLength="10" x="363" y="77.0879">12</text><text fill="#000000" font-family="Serif" font-size="10" lengthAdjust="spacing" textLength="10" x="395" y="77.0879">13</text><text fill="#000000" font-family="Serif" font-size="10" lengthAdjust="spacing" textLength="10" x="427" y="77.0879">14</text><text fill="#000000" font-family="Serif" font-size="12" font-weight="bold" lengthAdjust="spacing" textLength="69" x="189.5" y="51.1836">October 2021</text><line style="stroke:#C0C0C0;stroke-width:1.0;" x1="0" x2="0" y1="38.6094" y2="287.4609"/><line style="stroke:#C0C0C0;stroke-width:1.0;" x1="32" x2="32" y1="79.6094" y2="250.4609"/><line style="stroke:#C0C0C0;stroke-width:1.0;" x1="64" x2="64" y1="79.6094" y2="250.4609"/><line style="stroke:#C0C0C0;stroke-width:1.0;" x1="96" x2="96" y1="79.6094" y2="250.4609"/><line style="stroke:#C0C0C0;stroke-width:1.0;" x1="128" x2="128" y1="79.6094" y2="250.4609"/><line style="stroke:#C0C0C0;stroke-width:1.0;" x1="160" x2="160" y1="79.6094" y2="250.4609"/><line style="stroke:#C0C0C0;stroke-width:1.0;" x1="192" x2="192" y1="79.6094" y2="250.4609"/><line style="stroke:#C0C0C0;stroke-width:1.0;" x1="224" x2="224" y1="79.6094" y2="250.4609"/><line style="stroke:#C0C0C0;stroke-width:1.0;" x1="256" x2="256" y1="79.6094" y2="250.4609"/><line style="stroke:#C0C0C0;stroke-width:1.0;" x1="288" x2="288" y1="79.6094" y2="250.4609"/><line style="stroke:#C0C0C0;stroke-width:1.0;" x1="320" x2="320" y1="79.6094" y2="250.4609"/><line style="stroke:#C0C0C0;stroke-width:1.0;" x1="352" x2="352" y1="79.6094" y2="250.4609"/><line style="stroke:#C0C0C0;stroke-width:1.0;" x1="384" x2="384" y1="79.6094" y2="250.4609"/><line style="stroke:#C0C0C0;stroke-width:1.0;" x1="416" x2="416" y1="79.6094" y2="250.4609"/><line style="stroke:#C0C0C0;stroke-width:1.0;" x1="448" x2="448" y1="38.6094" y2="288.4609"/><line style="stroke:#C0C0C0;stroke-width:1.0;" x1="0" x2="448" y1="38.6094" y2="38.6094"/><line style="stroke:#C0C0C0;stroke-width:1.0;" x1="0" x2="448" y1="79.6094" y2="79.6094"/><line style="stroke:#A80036;stroke-width:1.5;" x1="144" x2="144" y1="95.4453" y2="106.3633"/><line style="stroke:#A80036;stroke-width:1.5;" x1="144" x2="159" y1="106.3633" y2="106.3633"/><polygon fill="#A80036" points="155,102.3633,155,106.3633,155,110.3633,159,106.3633" style="stroke:#A80036;stroke-width:1.5;"/><line style="stroke:#A80036;stroke-width:1.5;" x1="208" x2="208" y1="113.2813" y2="124.1992"/><line style="stroke:#A80036;stroke-width:1.5;" x1="208" x2="223" y1="124.1992" y2="124.1992"/><polygon fill="#A80036" points="219,120.1992,219,124.1992,219,128.1992,223,124.1992" style="stroke:#A80036;stroke-width:1.5;"/><line style="stroke:#A80036;stroke-width:1.5;" x1="144" x2="144" y1="95.4453" y2="175.8711"/><line style="stroke:#A80036;stroke-width:1.5;" x1="144" x2="159" y1="175.8711" y2="175.8711"/><polygon fill="#A80036" points="155,171.8711,155,175.8711,155,179.8711,159,175.8711" style="stroke:#A80036;stroke-width:1.5;"/><line style="stroke:#A80036;stroke-width:1.5;" x1="176" x2="176" y1="168.9531" y2="124.1992"/><line style="stroke:#A80036;stroke-width:1.5;" x1="176" x2="223" y1="124.1992" y2="124.1992"/><polygon fill="#A80036" points="219,120.1992,219,124.1992,219,128.1992,223,124.1992" style="stroke:#A80036;stroke-width:1.5;"/><line style="stroke:#A80036;stroke-width:1.5;" x1="240" x2="240" y1="131.1172" y2="227.543"/><line style="stroke:#A80036;stroke-width:1.5;" x1="240" x2="223" y1="227.543" y2="227.543"/><polygon fill="#A80036" points="227,223.543,227,227.543,227,231.543,223,227.543" style="stroke:#A80036;stroke-width:1.5;"/><rect fill="#FEFECE" height="13.8359" style="stroke:none;stroke-width:1.0;" width="31" x="2" y="81.6094"/><line style="stroke:#A80036;stroke-width:1.0;" x1="2" x2="31" y1="81.6094" y2="81.6094"/><line style="stroke:#A80036;stroke-width:1.0;" x1="2" x2="31" y1="95.4453" y2="95.4453"/><line style="stroke:#A80036;stroke-width:1.0;" x1="2" x2="2" y1="81.6094" y2="95.4453"/><rect fill="#FEFECE" height="13.8359" style="stroke:none;stroke-width:1.0;" width="62" x="96" y="81.6094"/><line style="stroke:#A80036;stroke-width:1.0;" x1="97" x2="158" y1="81.6094" y2="81.6094"/><line style="stroke:#A80036;stroke-width:1.0;" x1="97" x2="158" y1="95.4453" y2="95.4453"/><line style="stroke:#A80036;stroke-width:1.0;" x1="158" x2="158" y1="81.6094" y2="95.4453"/><line style="stroke:#A80036;stroke-width:1.0;stroke-dasharray:2.0,3.0;" x1="35" x2="93" y1="81.6094" y2="81.6094"/><line style="stroke:#A80036;stroke-width:1.0;stroke-dasharray:2.0,3.0;" x1="35" x2="93" y1="95.4453" y2="95.4453"/><rect fill="#FEFECE" height="13.8359" style="stroke:none;stroke-width:1.0;" width="60" x="162" y="99.4453"/><line style="stroke:#A80036;stroke-width:1.0;" x1="162" x2="222" y1="99.4453" y2="99.4453"/><line style="stroke:#A80036;stroke-width:1.0;" x1="162" x2="222" y1="113.2813" y2="113.2813"/><line style="stroke:#A80036;stroke-width:1.0;" x1="162" x2="162" y1="99.4453" y2="113.2813"/><line style="stroke:#A80036;stroke-width:1.0;" x1="222" x2="222" y1="99.4453" y2="113.2813"/><rect fill="#FEFECE" height="13.8359" style="stroke:none;stroke-width:1.0;" width="31" x="226" y="117.2813"/><line style="stroke:#A80036;stroke-width:1.0;" x1="226" x2="255" y1="117.2813" y2="117.2813"/><line style="stroke:#A80036;stroke-width:1.0;" x1="226" x2="255" y1="131.1172" y2="131.1172"/><line style="stroke:#A80036;stroke-width:1.0;" x1="226" x2="226" y1="117.2813" y2="131.1172"/><rect fill="#FEFECE" height="13.8359" style="stroke:none;stroke-width:1.0;" width="126" x="320" y="117.2813"/><line style="stroke:#A80036;stroke-width:1.0;" x1="321" x2="446" y1="117.2813" y2="117.2813"/><line style="stroke:#A80036;stroke-width:1.0;" x1="321" x2="446" y1="131.1172" y2="131.1172"/><line style="stroke:#A80036;stroke-width:1.0;" x1="446" x2="446" y1="117.2813" y2="131.1172"/><line style="stroke:#A80036;stroke-width:1.0;stroke-dasharray:2.0,3.0;" x1="259" x2="317" y1="117.2813" y2="117.2813"/><line style="stroke:#A80036;stroke-width:1.0;stroke-dasharray:2.0,3.0;" x1="259" x2="317" y1="131.1172" y2="131.1172"/><line style="stroke:#000000;stroke-width:1.0;" x1="0" x2="5" y1="150.0352" y2="150.0352"/><line style="stroke:#000000;stroke-width:1.0;" x1="51" x2="447" y1="150.0352" y2="150.0352"/><rect fill="#FEFECE" height="13.8359" style="stroke:none;stroke-width:1.0;" width="28" x="162" y="168.9531"/><line style="stroke:#A80036;stroke-width:1.0;" x1="162" x2="190" y1="168.9531" y2="168.9531"/><line style="stroke:#A80036;stroke-width:1.0;" x1="162" x2="190" y1="182.7891" y2="182.7891"/><line style="stroke:#A80036;stroke-width:1.0;" x1="162" x2="162" y1="168.9531" y2="182.7891"/><line style="stroke:#A80036;stroke-width:1.0;" x1="190" x2="190" y1="168.9531" y2="182.7891"/><line style="stroke:#000000;stroke-width:1.0;" x1="0" x2="5" y1="201.707" y2="201.707"/><line style="stroke:#000000;stroke-width:1.0;" x1="130" x2="447" y1="201.707" y2="201.707"/><rect fill="#FEFECE" height="13.8359" style="stroke:none;stroke-width:1.0;" width="124" x="98" y="220.625"/><line style="stroke:#A80036;stroke-width:1.0;" x1="98" x2="222" y1="220.625" y2="220.625"/><line style="stroke:#A80036;stroke-width:1.0;" x1="98" x2="222" y1="234.4609" y2="234.4609"/><line style="stroke:#A80036;stroke-width:1.0;" x1="98" x2="98" y1="220.625" y2="234.4609"/><line style="stroke:#A80036;stroke-width:1.0;" x1="222" x2="222" y1="220.625" y2="234.4609"/><polygon fill="#000000" points="432,238.4609,437,243.4609,432,248.4609,427,243.4609" style="stroke:#000000;stroke-width:1.0;"/><text fill="#000000" font-family="sans-serif" font-size="11" lengthAdjust="spacing" textLength="78" x="6" y="93.0283">workshop ideas</text><text fill="#000000" font-family="sans-serif" font-size="11" lengthAdjust="spacing" textLength="80" x="226" y="110.8643">feasibility testing</text><text fill="#000000" font-family="sans-serif" font-size="11" lengthAdjust="spacing" textLength="96" x="230" y="128.7002">review for approval</text><text fill="#000000" font-family="sans-serif" font-size="11" lengthAdjust="spacing" textLength="36" x="10" y="154.5361">finance</text><text fill="#000000" font-family="sans-serif" font-size="11" lengthAdjust="spacing" textLength="70" x="194" y="180.3721">estimate costs</text><text fill="#000000" font-family="sans-serif" font-size="11" lengthAdjust="spacing" textLength="115" x="10" y="206.208">mission, vision &amp; values</text><text fill="#000000" font-family="sans-serif" font-size="11" lengthAdjust="spacing" textLength="143" x="236" y="232.0439">assess corporate compliance</text><text fill="#000000" font-family="sans-serif" font-size="11" lengthAdjust="spacing" textLength="46" x="440" y="247.9619">approved</text><!--MD5=[80cdbc115f30b71b362ce5a8dcba0786]
@startuml example_gantt_chart
' set the theme

hide footbox
saturday are closed
sunday are closed
project starts on 1 october 2021
printscale daily zoom 2

title New Idea Development

[workshop ideas] as [task01] lasts 3 days
[feasibility testing] as [task02] lasts 2 days
[review for approval] as [task03] lasts 5 days
[task01]->[task02]
[task02]->[task03]
- - finance - -
[estimate costs] as [task10] lasts 1 days
[task01]->[task10]
[task10]->[task03]
- - mission, vision & values - -
[assess corporate compliance] as [task20] lasts 4 days and ends at [task03]'s start



[approved] happens at [task03]'s end

@enduml

@startuml example_gantt_chart

hide footbox
saturday are closed
sunday are closed
project starts on 1 october 2021
printscale daily zoom 2

title New Idea Development

[workshop ideas] as [task01] lasts 3 days
[feasibility testing] as [task02] lasts 2 days
[review for approval] as [task03] lasts 5 days
[task01]->[task02]
[task02]->[task03]
- - finance - -
[estimate costs] as [task10] lasts 1 days
[task01]->[task10]
[task10]->[task03]
- - mission, vision & values - -
[assess corporate compliance] as [task20] lasts 4 days and ends at [task03]'s start



[approved] happens at [task03]'s end

@enduml

PlantUML version 1.2021.7(Sun May 23 13:40:07 BST 2021)
(GPL source distribution)
Java Runtime: OpenJDK Runtime Environment
JVM: OpenJDK 64-Bit Server VM
Default Encoding: Cp1252
Language: en
Country: GB
--></g></svg>