<?xml version="1.0" encoding="UTF-8" standalone="no"?><svg xmlns="http://www.w3.org/2000/svg" xmlns:xlink="http://www.w3.org/1999/xlink" contentScriptType="application/ecmascript" contentStyleType="text/css" height="230px" preserveAspectRatio="none" style="width:944px;height:230px;background:#FFFFFF;" version="1.1" viewBox="0 0 944 230" width="944px" zoomAndPan="magnify"><defs/><g><rect fill="none" height="27.6094" style="stroke:none;stroke-width:1.0;" width="122" x="360.5" y="5"/><text fill="#000000" font-family="sans-serif" font-size="14" font-weight="bold" lengthAdjust="spacing" textLength="112" x="365.5" y="24.5332">Uni Dissertation</text><rect fill="#E0E8E8" height="145.1797" style="stroke:none;stroke-width:1.0;" width="8" x="4" y="67.6094"/><rect fill="#E0E8E8" height="145.1797" style="stroke:none;stroke-width:1.0;" width="8" x="32" y="67.6094"/><rect fill="#E0E8E8" height="145.1797" style="stroke:none;stroke-width:1.0;" width="8" x="60" y="67.6094"/><rect fill="#E0E8E8" height="145.1797" style="stroke:none;stroke-width:1.0;" width="36" x="88" y="67.6094"/><rect fill="#E0E8E8" height="145.1797" style="stroke:none;stroke-width:1.0;" width="8" x="144" y="67.6094"/><rect fill="#E0E8E8" height="145.1797" style="stroke:none;stroke-width:1.0;" width="8" x="172" y="67.6094"/><rect fill="#E0E8E8" height="145.1797" style="stroke:none;stroke-width:1.0;" width="8" x="200" y="67.6094"/><rect fill="#E0E8E8" height="145.1797" style="stroke:none;stroke-width:1.0;" width="8" x="228" y="67.6094"/><rect fill="#E0E8E8" height="145.1797" style="stroke:none;stroke-width:1.0;" width="8" x="256" y="67.6094"/><rect fill="#E0E8E8" height="145.1797" style="stroke:none;stroke-width:1.0;" width="8" x="284" y="67.6094"/><rect fill="#E0E8E8" height="145.1797" style="stroke:none;stroke-width:1.0;" width="8" x="312" y="67.6094"/><rect fill="#E0E8E8" height="145.1797" style="stroke:none;stroke-width:1.0;" width="40" x="336" y="67.6094"/><rect fill="#E0E8E8" height="145.1797" style="stroke:none;stroke-width:1.0;" width="8" x="396" y="67.6094"/><rect fill="#E0E8E8" height="145.1797" style="stroke:none;stroke-width:1.0;" width="8" x="424" y="67.6094"/><rect fill="#E0E8E8" height="145.1797" style="stroke:none;stroke-width:1.0;" width="8" x="452" y="67.6094"/><rect fill="#E0E8E8" height="145.1797" style="stroke:none;stroke-width:1.0;" width="8" x="480" y="67.6094"/><rect fill="#E0E8E8" height="145.1797" style="stroke:none;stroke-width:1.0;" width="8" x="508" y="67.6094"/><rect fill="#E0E8E8" height="145.1797" style="stroke:none;stroke-width:1.0;" width="8" x="536" y="67.6094"/><rect fill="#E0E8E8" height="145.1797" style="stroke:none;stroke-width:1.0;" width="8" x="564" y="67.6094"/><rect fill="#E0E8E8" height="145.1797" style="stroke:none;stroke-width:1.0;" width="8" x="592" y="67.6094"/><rect fill="#E0E8E8" height="145.1797" style="stroke:none;stroke-width:1.0;" width="8" x="620" y="67.6094"/><rect fill="#E0E8E8" height="145.1797" style="stroke:none;stroke-width:1.0;" width="8" x="648" y="67.6094"/><rect fill="#E0E8E8" height="145.1797" style="stroke:none;stroke-width:1.0;" width="8" x="676" y="67.6094"/><rect fill="#E0E8E8" height="145.1797" style="stroke:none;stroke-width:1.0;" width="8" x="704" y="67.6094"/><rect fill="#E0E8E8" height="145.1797" style="stroke:none;stroke-width:1.0;" width="8" x="732" y="67.6094"/><rect fill="#E0E8E8" height="145.1797" style="stroke:none;stroke-width:1.0;" width="8" x="760" y="67.6094"/><rect fill="#E0E8E8" height="145.1797" style="stroke:none;stroke-width:1.0;" width="16" x="784" y="67.6094"/><rect fill="#E0E8E8" height="145.1797" style="stroke:none;stroke-width:1.0;" width="8" x="816" y="67.6094"/><text fill="#000000" font-family="Serif" font-size="10" lengthAdjust="spacing" textLength="10" x="17" y="65.0879">40</text><text fill="#000000" font-family="Serif" font-size="10" lengthAdjust="spacing" textLength="10" x="45" y="65.0879">41</text><text fill="#000000" font-family="Serif" font-size="10" lengthAdjust="spacing" textLength="10" x="73" y="65.0879">42</text><text fill="#000000" font-family="Serif" font-size="10" lengthAdjust="spacing" textLength="10" x="101" y="65.0879">43</text><text fill="#000000" font-family="Serif" font-size="10" lengthAdjust="spacing" textLength="10" x="129" y="65.0879">44</text><text fill="#000000" font-family="Serif" font-size="10" lengthAdjust="spacing" textLength="10" x="157" y="65.0879">45</text><text fill="#000000" font-family="Serif" font-size="10" lengthAdjust="spacing" textLength="10" x="185" y="65.0879">46</text><text fill="#000000" font-family="Serif" font-size="10" lengthAdjust="spacing" textLength="10" x="213" y="65.0879">47</text><text fill="#000000" font-family="Serif" font-size="10" lengthAdjust="spacing" textLength="10" x="241" y="65.0879">48</text><text fill="#000000" font-family="Serif" font-size="10" lengthAdjust="spacing" textLength="10" x="269" y="65.0879">49</text><text fill="#000000" font-family="Serif" font-size="10" lengthAdjust="spacing" textLength="10" x="297" y="65.0879">50</text><text fill="#000000" font-family="Serif" font-size="10" lengthAdjust="spacing" textLength="10" x="325" y="65.0879">51</text><text fill="#000000" font-family="Serif" font-size="10" lengthAdjust="spacing" textLength="10" x="353" y="65.0879">52</text><text fill="#000000" font-family="Serif" font-size="10" lengthAdjust="spacing" textLength="5" x="381" y="65.0879">1</text><text fill="#000000" font-family="Serif" font-size="10" lengthAdjust="spacing" textLength="5" x="409" y="65.0879">2</text><text fill="#000000" font-family="Serif" font-size="10" lengthAdjust="spacing" textLength="5" x="437" y="65.0879">3</text><text fill="#000000" font-family="Serif" font-size="10" lengthAdjust="spacing" textLength="5" x="465" y="65.0879">4</text><text fill="#000000" font-family="Serif" font-size="10" lengthAdjust="spacing" textLength="5" x="493" y="65.0879">5</text><text fill="#000000" font-family="Serif" font-size="10" lengthAdjust="spacing" textLength="5" x="521" y="65.0879">6</text><text fill="#000000" font-family="Serif" font-size="10" lengthAdjust="spacing" textLength="5" x="549" y="65.0879">7</text><text fill="#000000" font-family="Serif" font-size="10" lengthAdjust="spacing" textLength="5" x="577" y="65.0879">8</text><text fill="#000000" font-family="Serif" font-size="10" lengthAdjust="spacing" textLength="5" x="605" y="65.0879">9</text><text fill="#000000" font-family="Serif" font-size="10" lengthAdjust="spacing" textLength="10" x="633" y="65.0879">10</text><text fill="#000000" font-family="Serif" font-size="10" lengthAdjust="spacing" textLength="10" x="661" y="65.0879">11</text><text fill="#000000" font-family="Serif" font-size="10" lengthAdjust="spacing" textLength="10" x="689" y="65.0879">12</text><text fill="#000000" font-family="Serif" font-size="10" lengthAdjust="spacing" textLength="10" x="717" y="65.0879">13</text><text fill="#000000" font-family="Serif" font-size="10" lengthAdjust="spacing" textLength="10" x="745" y="65.0879">14</text><text fill="#000000" font-family="Serif" font-size="10" lengthAdjust="spacing" textLength="10" x="773" y="65.0879">15</text><text fill="#000000" font-family="Serif" font-size="10" lengthAdjust="spacing" textLength="10" x="801" y="65.0879">16</text><text fill="#000000" font-family="Serif" font-size="10" lengthAdjust="spacing" textLength="10" x="829" y="65.0879">17</text><line style="stroke:#C0C0C0;stroke-width:1.0;" x1="12" x2="12" y1="54.6094" y2="212.7891"/><line style="stroke:#C0C0C0;stroke-width:1.0;" x1="40" x2="40" y1="54.6094" y2="212.7891"/><line style="stroke:#C0C0C0;stroke-width:1.0;" x1="68" x2="68" y1="54.6094" y2="212.7891"/><line style="stroke:#C0C0C0;stroke-width:1.0;" x1="96" x2="96" y1="54.6094" y2="212.7891"/><line style="stroke:#C0C0C0;stroke-width:1.0;" x1="124" x2="124" y1="54.6094" y2="212.7891"/><line style="stroke:#C0C0C0;stroke-width:1.0;" x1="152" x2="152" y1="54.6094" y2="212.7891"/><line style="stroke:#C0C0C0;stroke-width:1.0;" x1="180" x2="180" y1="54.6094" y2="212.7891"/><line style="stroke:#C0C0C0;stroke-width:1.0;" x1="208" x2="208" y1="54.6094" y2="212.7891"/><line style="stroke:#C0C0C0;stroke-width:1.0;" x1="236" x2="236" y1="54.6094" y2="212.7891"/><line style="stroke:#C0C0C0;stroke-width:1.0;" x1="264" x2="264" y1="54.6094" y2="212.7891"/><line style="stroke:#C0C0C0;stroke-width:1.0;" x1="292" x2="292" y1="54.6094" y2="212.7891"/><line style="stroke:#C0C0C0;stroke-width:1.0;" x1="320" x2="320" y1="54.6094" y2="212.7891"/><line style="stroke:#C0C0C0;stroke-width:1.0;" x1="348" x2="348" y1="54.6094" y2="212.7891"/><line style="stroke:#C0C0C0;stroke-width:1.0;" x1="376" x2="376" y1="54.6094" y2="212.7891"/><line style="stroke:#C0C0C0;stroke-width:1.0;" x1="404" x2="404" y1="54.6094" y2="212.7891"/><line style="stroke:#C0C0C0;stroke-width:1.0;" x1="432" x2="432" y1="54.6094" y2="212.7891"/><line style="stroke:#C0C0C0;stroke-width:1.0;" x1="460" x2="460" y1="54.6094" y2="212.7891"/><line style="stroke:#C0C0C0;stroke-width:1.0;" x1="488" x2="488" y1="54.6094" y2="212.7891"/><line style="stroke:#C0C0C0;stroke-width:1.0;" x1="516" x2="516" y1="54.6094" y2="212.7891"/><line style="stroke:#C0C0C0;stroke-width:1.0;" x1="544" x2="544" y1="54.6094" y2="212.7891"/><line style="stroke:#C0C0C0;stroke-width:1.0;" x1="572" x2="572" y1="54.6094" y2="212.7891"/><line style="stroke:#C0C0C0;stroke-width:1.0;" x1="600" x2="600" y1="54.6094" y2="212.7891"/><line style="stroke:#C0C0C0;stroke-width:1.0;" x1="628" x2="628" y1="54.6094" y2="212.7891"/><line style="stroke:#C0C0C0;stroke-width:1.0;" x1="656" x2="656" y1="54.6094" y2="212.7891"/><line style="stroke:#C0C0C0;stroke-width:1.0;" x1="684" x2="684" y1="54.6094" y2="212.7891"/><line style="stroke:#C0C0C0;stroke-width:1.0;" x1="712" x2="712" y1="54.6094" y2="212.7891"/><line style="stroke:#C0C0C0;stroke-width:1.0;" x1="740" x2="740" y1="54.6094" y2="212.7891"/><line style="stroke:#C0C0C0;stroke-width:1.0;" x1="768" x2="768" y1="54.6094" y2="212.7891"/><line style="stroke:#C0C0C0;stroke-width:1.0;" x1="796" x2="796" y1="54.6094" y2="212.7891"/><line style="stroke:#C0C0C0;stroke-width:1.0;" x1="824" x2="824" y1="54.6094" y2="212.7891"/><line style="stroke:#C0C0C0;stroke-width:1.0;" x1="844" x2="844" y1="54.6094" y2="212.7891"/><line style="stroke:#C0C0C0;stroke-width:1.0;" x1="0" x2="0" y1="38.6094" y2="54.6094"/><line style="stroke:#C0C0C0;stroke-width:1.0;" x1="124" x2="124" y1="38.6094" y2="54.6094"/><text fill="#000000" font-family="Serif" font-size="12" font-weight="bold" lengthAdjust="spacing" textLength="46" x="39" y="51.1836">Oct 2021</text><line style="stroke:#C0C0C0;stroke-width:1.0;" x1="244" x2="244" y1="38.6094" y2="54.6094"/><text fill="#000000" font-family="Serif" font-size="12" font-weight="bold" lengthAdjust="spacing" textLength="47" x="160.5" y="51.1836">Nov 2021</text><line style="stroke:#C0C0C0;stroke-width:1.0;" x1="368" x2="368" y1="38.6094" y2="54.6094"/><text fill="#000000" font-family="Serif" font-size="12" font-weight="bold" lengthAdjust="spacing" textLength="47" x="282.5" y="51.1836">Dec 2021</text><line style="stroke:#C0C0C0;stroke-width:1.0;" x1="492" x2="492" y1="38.6094" y2="54.6094"/><text fill="#000000" font-family="Serif" font-size="12" font-weight="bold" lengthAdjust="spacing" textLength="46" x="407" y="51.1836">Jan 2022</text><line style="stroke:#C0C0C0;stroke-width:1.0;" x1="604" x2="604" y1="38.6094" y2="54.6094"/><text fill="#000000" font-family="Serif" font-size="12" font-weight="bold" lengthAdjust="spacing" textLength="46" x="525" y="51.1836">Feb 2022</text><line style="stroke:#C0C0C0;stroke-width:1.0;" x1="728" x2="728" y1="38.6094" y2="54.6094"/><text fill="#000000" font-family="Serif" font-size="12" font-weight="bold" lengthAdjust="spacing" textLength="49" x="641.5" y="51.1836">Mar 2022</text><line style="stroke:#C0C0C0;stroke-width:1.0;" x1="844" x2="844" y1="38.6094" y2="54.6094"/><text fill="#000000" font-family="Serif" font-size="12" font-weight="bold" lengthAdjust="spacing" textLength="46" x="763" y="51.1836">Apr 2022</text><line style="stroke:#C0C0C0;stroke-width:1.0;" x1="0" x2="844" y1="38.6094" y2="38.6094"/><line style="stroke:#C0C0C0;stroke-width:1.0;" x1="0" x2="844" y1="54.6094" y2="54.6094"/><line style="stroke:#C0C0C0;stroke-width:1.0;" x1="0" x2="844" y1="67.6094" y2="67.6094"/><line style="stroke:#A80036;stroke-width:1.5;" x1="19" x2="19" y1="83.4453" y2="94.3633"/><line style="stroke:#A80036;stroke-width:1.5;" x1="19" x2="27" y1="94.3633" y2="94.3633"/><polygon fill="#A80036" points="23,90.3633,23,94.3633,23,98.3633,27,94.3633" style="stroke:#A80036;stroke-width:1.5;"/><line style="stroke:#A80036;stroke-width:1.5;" x1="30" x2="30" y1="101.2813" y2="112.1992"/><line style="stroke:#A80036;stroke-width:1.5;" x1="30" x2="39" y1="112.1992" y2="112.1992"/><polygon fill="#A80036" points="35,108.1992,35,112.1992,35,116.1992,39,112.1992" style="stroke:#A80036;stroke-width:1.5;"/><line style="stroke:#A80036;stroke-width:1.5;" x1="86" x2="86" y1="119.1172" y2="130.0352"/><line style="stroke:#A80036;stroke-width:1.5;" x1="86" x2="123" y1="130.0352" y2="130.0352"/><polygon fill="#A80036" points="119,126.0352,119,130.0352,119,134.0352,123,130.0352" style="stroke:#A80036;stroke-width:1.5;"/><line style="stroke:#A80036;stroke-width:1.5;" x1="142" x2="142" y1="136.9531" y2="147.8711"/><line style="stroke:#A80036;stroke-width:1.5;" x1="142" x2="151" y1="147.8711" y2="147.8711"/><polygon fill="#A80036" points="147,143.8711,147,147.8711,147,151.8711,151,147.8711" style="stroke:#A80036;stroke-width:1.5;"/><rect fill="#FEFECE" height="13.8359" style="stroke:none;stroke-width:1.0;" width="3" x="2" y="69.6094"/><line style="stroke:#A80036;stroke-width:1.0;" x1="2" x2="3" y1="69.6094" y2="69.6094"/><line style="stroke:#A80036;stroke-width:1.0;" x1="2" x2="3" y1="83.4453" y2="83.4453"/><line style="stroke:#A80036;stroke-width:1.0;" x1="2" x2="2" y1="69.6094" y2="83.4453"/><rect fill="#FEFECE" height="13.8359" style="stroke:none;stroke-width:1.0;" width="14" x="12" y="69.6094"/><line style="stroke:#A80036;stroke-width:1.0;" x1="13" x2="26" y1="69.6094" y2="69.6094"/><line style="stroke:#A80036;stroke-width:1.0;" x1="13" x2="26" y1="83.4453" y2="83.4453"/><line style="stroke:#A80036;stroke-width:1.0;" x1="26" x2="26" y1="69.6094" y2="83.4453"/><line style="stroke:#A80036;stroke-width:1.0;stroke-dasharray:2.0,3.0;" x1="7" x2="9" y1="69.6094" y2="69.6094"/><line style="stroke:#A80036;stroke-width:1.0;stroke-dasharray:2.0,3.0;" x1="7" x2="9" y1="83.4453" y2="83.4453"/><rect fill="#FEFECE" height="13.8359" style="stroke:none;stroke-width:1.0;" width="1" x="30" y="87.4453"/><line style="stroke:#A80036;stroke-width:1.0;" x1="30" x2="31" y1="87.4453" y2="87.4453"/><line style="stroke:#A80036;stroke-width:1.0;" x1="30" x2="31" y1="101.2813" y2="101.2813"/><line style="stroke:#A80036;stroke-width:1.0;" x1="30" x2="30" y1="87.4453" y2="101.2813"/><line style="stroke:#A80036;stroke-width:1.0;" x1="31" x2="31" y1="87.4453" y2="101.2813"/><rect fill="#FEFECE" height="13.8359" style="stroke:none;stroke-width:1.0;" width="19" x="42" y="105.2813"/><line style="stroke:#A80036;stroke-width:1.0;" x1="42" x2="59" y1="105.2813" y2="105.2813"/><line style="stroke:#A80036;stroke-width:1.0;" x1="42" x2="59" y1="119.1172" y2="119.1172"/><line style="stroke:#A80036;stroke-width:1.0;" x1="42" x2="42" y1="105.2813" y2="119.1172"/><rect fill="#FEFECE" height="13.8359" style="stroke:none;stroke-width:1.0;" width="18" x="68" y="105.2813"/><line style="stroke:#A80036;stroke-width:1.0;" x1="69" x2="86" y1="105.2813" y2="105.2813"/><line style="stroke:#A80036;stroke-width:1.0;" x1="69" x2="86" y1="119.1172" y2="119.1172"/><line style="stroke:#A80036;stroke-width:1.0;" x1="86" x2="86" y1="105.2813" y2="119.1172"/><line style="stroke:#A80036;stroke-width:1.0;stroke-dasharray:2.0,3.0;" x1="63" x2="65" y1="105.2813" y2="105.2813"/><line style="stroke:#A80036;stroke-width:1.0;stroke-dasharray:2.0,3.0;" x1="63" x2="65" y1="119.1172" y2="119.1172"/><rect fill="#FEFECE" height="13.8359" style="stroke:none;stroke-width:1.0;" width="16" x="126" y="123.1172"/><line style="stroke:#A80036;stroke-width:1.0;" x1="126" x2="142" y1="123.1172" y2="123.1172"/><line style="stroke:#A80036;stroke-width:1.0;" x1="126" x2="142" y1="136.9531" y2="136.9531"/><line style="stroke:#A80036;stroke-width:1.0;" x1="126" x2="126" y1="123.1172" y2="136.9531"/><line style="stroke:#A80036;stroke-width:1.0;" x1="142" x2="142" y1="123.1172" y2="136.9531"/><rect fill="#FEFECE" height="13.8359" style="stroke:none;stroke-width:1.0;" width="16" x="154" y="140.9531"/><line style="stroke:#A80036;stroke-width:1.0;" x1="154" x2="170" y1="140.9531" y2="140.9531"/><line style="stroke:#A80036;stroke-width:1.0;" x1="154" x2="170" y1="154.7891" y2="154.7891"/><line style="stroke:#A80036;stroke-width:1.0;" x1="154" x2="154" y1="140.9531" y2="154.7891"/><line style="stroke:#A80036;stroke-width:1.0;" x1="170" x2="170" y1="140.9531" y2="154.7891"/><polygon fill="#000000" points="86,158.7891,91,163.7891,86,168.7891,81,163.7891" style="stroke:#000000;stroke-width:1.0;"/><polygon fill="#000000" points="422,172.7891,427,177.7891,422,182.7891,417,177.7891" style="stroke:#000000;stroke-width:1.0;"/><polygon fill="#000000" points="450,186.7891,455,191.7891,450,196.7891,445,191.7891" style="stroke:#000000;stroke-width:1.0;"/><polygon fill="#000000" points="842,200.7891,847,205.7891,842,210.7891,837,205.7891" style="stroke:#000000;stroke-width:1.0;"/><text fill="#000000" font-family="sans-serif" font-size="11" lengthAdjust="spacing" textLength="65" x="30" y="81.0283">consider idea</text><text fill="#000000" font-family="sans-serif" font-size="11" lengthAdjust="spacing" textLength="78" x="34" y="98.8643">meet supervisor</text><text fill="#000000" font-family="sans-serif" font-size="11" lengthAdjust="spacing" textLength="139" x="90" y="116.7002">rework idea &amp; draft proposal</text><text fill="#000000" font-family="sans-serif" font-size="11" lengthAdjust="spacing" textLength="121" x="146" y="134.5361">read &amp; feedback on draft</text><text fill="#000000" font-family="sans-serif" font-size="11" lengthAdjust="spacing" textLength="108" x="174" y="152.3721">final work on Proposal</text><text fill="#000000" font-family="sans-serif" font-size="11" lengthAdjust="spacing" textLength="77" x="94" y="168.29">Submit Proposal</text><text fill="#000000" font-family="sans-serif" font-size="11" lengthAdjust="spacing" textLength="66" x="430" y="182.29">Submit Interim</text><text fill="#000000" font-family="sans-serif" font-size="11" lengthAdjust="spacing" textLength="73" x="458" y="196.29">Ethics Deadline</text><text fill="#000000" font-family="sans-serif" font-size="11" lengthAdjust="spacing" textLength="92" x="850" y="210.29">Submit Dissertation</text><line style="stroke:#C0C0C0;stroke-width:1.0;" x1="0" x2="844" y1="212.7891" y2="212.7891"/><line style="stroke:#C0C0C0;stroke-width:1.0;" x1="0" x2="0" y1="212.7891" y2="228.7891"/><line style="stroke:#C0C0C0;stroke-width:1.0;" x1="124" x2="124" y1="212.7891" y2="228.7891"/><text fill="#000000" font-family="Serif" font-size="12" font-weight="bold" lengthAdjust="spacing" textLength="46" x="39" y="225.3633">Oct 2021</text><line style="stroke:#C0C0C0;stroke-width:1.0;" x1="244" x2="244" y1="212.7891" y2="228.7891"/><text fill="#000000" font-family="Serif" font-size="12" font-weight="bold" lengthAdjust="spacing" textLength="47" x="160.5" y="225.3633">Nov 2021</text><line style="stroke:#C0C0C0;stroke-width:1.0;" x1="368" x2="368" y1="212.7891" y2="228.7891"/><text fill="#000000" font-family="Serif" font-size="12" font-weight="bold" lengthAdjust="spacing" textLength="47" x="282.5" y="225.3633">Dec 2021</text><line style="stroke:#C0C0C0;stroke-width:1.0;" x1="492" x2="492" y1="212.7891" y2="228.7891"/><text fill="#000000" font-family="Serif" font-size="12" font-weight="bold" lengthAdjust="spacing" textLength="46" x="407" y="225.3633">Jan 2022</text><line style="stroke:#C0C0C0;stroke-width:1.0;" x1="604" x2="604" y1="212.7891" y2="228.7891"/><text fill="#000000" font-family="Serif" font-size="12" font-weight="bold" lengthAdjust="spacing" textLength="46" x="525" y="225.3633">Feb 2022</text><line style="stroke:#C0C0C0;stroke-width:1.0;" x1="728" x2="728" y1="212.7891" y2="228.7891"/><text fill="#000000" font-family="Serif" font-size="12" font-weight="bold" lengthAdjust="spacing" textLength="49" x="641.5" y="225.3633">Mar 2022</text><line style="stroke:#C0C0C0;stroke-width:1.0;" x1="844" x2="844" y1="212.7891" y2="228.7891"/><text fill="#000000" font-family="Serif" font-size="12" font-weight="bold" lengthAdjust="spacing" textLength="46" x="763" y="225.3633">Apr 2022</text><line style="stroke:#C0C0C0;stroke-width:1.0;" x1="0" x2="844" y1="228.7891" y2="228.7891"/><!--MD5=[59e9aa4ee0a7ace6d7f38ce627cb1faa]
@startuml
title Uni Dissertation
projectscale weekly 
project starts 2021/10/01
saturdays are closed
sundays are closed
2021/10/25 to 2021/10/29 is closed
2021/12/24 to 2022/01/01 is closed
2022/04/15 to 2022/04/18 is closed

[consider idea] lasts 5 days
then [meet supervisor] lasts 1 day
then [rework idea & draft proposal] lasts 10 days
then [read & feedback on draft] lasts 5 days
then [final work on Proposal] lasts 5 days
[Submit Proposal] happens 2021/10/22

[Submit Interim] happens 2022/01/14

[Ethics Deadline] happens 2022/01/21

[Submit Dissertation] happens 2022/04/29
@enduml

PlantUML version 1.2021.7(Sun May 23 13:40:07 BST 2021)
(GPL source distribution)
Java Runtime: OpenJDK Runtime Environment
JVM: OpenJDK 64-Bit Server VM
Default Encoding: Cp1252
Language: en
Country: GB
--></g></svg>